<svg width="512" height="512" viewBox="0 0 512 512" fill="none" xmlns="http://www.w3.org/2000/svg">
<g clip-path="url(#clip0_209_26)">
<path d="M326.7 403.7C304.6 411.7 280.8 416 256 416C231.2 416 207.3 411.6 185.3 403.7C185 403.6 184.8 403.5 184.5 403.4C154.5 392.4 127.7 374.7 105.9 352C70 314.6 48 263.9 48 208C48 93.1 141.1 0 256 0C370.9 0 464 93.1 464 208C464 263.9 442 314.6 406.1 352C405.1 353 404.1 354.1 403.1 355.1C381.7 376.5 355.7 393.2 326.8 403.7H326.7ZM256 91.9C244.9 91.9 235.9 100.9 235.9 112V118C230.3 119.2 225 120.9 220 123.1C205 129.9 192.1 142.5 188.9 160.8C187.1 171 188.1 180.8 192.3 189.8C196.5 198.6 203 204.8 209.6 209.3C221.2 217.2 236.5 221.8 248.2 225.3L250.4 226C264.3 230.2 273.8 233.4 279.7 237.7C282.2 239.5 283.1 240.9 283.5 241.7C283.8 242.5 284.4 244.3 283.7 248.4C283.1 251.9 281.2 254.8 275.7 257.2C269.6 259.8 259.7 261.1 246.9 259.1C240.9 258.1 230.2 254.5 220.7 251.2C218.5 250.5 216.4 249.7 214.3 249.1C203.8 245.6 192.5 251.3 189 261.8C185.5 272.3 191.2 283.6 201.7 287.1C202.9 287.5 204.4 288 206.1 288.6C214 291.3 226.4 295.5 235.9 297.7V304C235.9 315.1 244.9 324.1 256 324.1C267.1 324.1 276.1 315.1 276.1 304V298.5C281.5 297.5 286.6 296 291.5 293.9C307.2 287.2 319.9 274.2 323.1 255.2C324.9 244.8 324.1 234.9 320.1 225.8C316.2 216.8 309.9 210.2 303.2 205.3C291 196.5 274.9 191.6 262.8 187.9L262 187.7C247.8 183.4 238.2 180.4 232.1 176.3C229.5 174.5 228.7 173.3 228.5 172.8C228.3 172.5 227.8 171.2 228.4 167.8C228.7 165.9 230.3 162.6 236.6 159.7C243 156.8 253 155.2 265.2 157.1C269.5 157.8 283.1 160.4 286.9 161.4C297.6 164.2 308.5 157.9 311.4 147.2C314.3 136.5 307.9 125.6 297.2 122.7C292.8 121.5 282.8 119.5 276.2 118.3V112C276.2 100.9 267.2 91.9 256.1 91.9H256ZM48 352H64C83.5 377.9 108 399.7 136.2 416H64V448H256H448V416H375.8C404 399.7 428.6 377.9 448 352H464C490.5 352 512 373.5 512 400V464C512 490.5 490.5 512 464 512H48C21.5 512 0 490.5 0 464V400C0 373.5 21.5 352 48 352Z" fill="#F4772A"/>
</g>
<defs>
<clipPath id="clip0_209_26">
<rect width="512" height="512" fill="white"/>
</clipPath>
</defs>
</svg>
