<svg width="640" height="512" viewBox="0 0 640 512" fill="none" xmlns="http://www.w3.org/2000/svg">
<g clip-path="url(#clip0_209_24)">
<path d="M38.7998 5.10001C28.3998 -3.09999 13.2998 -1.19999 5.09976 9.20001C-3.10024 19.6 -1.20024 34.7 9.19976 42.9L601.2 506.9C611.6 515.1 626.7 513.2 634.9 502.8C643.1 492.4 641.2 477.3 630.8 469.1L353.3 251.6C407.9 237 448 187.2 448 128C448 57.3 390.7 5.74579e-06 320 5.74579e-06C250.2 5.74579e-06 193.5 55.8 192 125.2L38.7998 5.10001ZM264.3 304.3C170.5 309.4 95.9998 387.2 95.9998 482.3C95.9998 498.7 109.3 512 125.7 512H514.3C518.2 512 521.9 511.3 525.3 509.9L264.3 304.3Z" fill="#F4772A"/>
</g>
<defs>
<clipPath id="clip0_209_24">
<rect width="640" height="512" fill="white"/>
</clipPath>
</defs>
</svg>
