<svg width="640" height="512" viewBox="0 0 640 512" fill="none" xmlns="http://www.w3.org/2000/svg">
<g clip-path="url(#clip0_209_28)">
<path d="M352 128C352 198.7 294.7 256 224 256C153.3 256 96 198.7 96 128C96 57.3 153.3 0 224 0C294.7 0 352 57.3 352 128ZM0 482.3C0 383.8 79.8 304 178.3 304H269.7C368.2 304 448 383.8 448 482.3C448 498.7 434.7 512 418.3 512H29.7C13.3 512 0 498.7 0 482.3ZM471 143C480.4 133.6 495.6 133.6 504.9 143L551.9 190L598.9 143C608.3 133.6 623.5 133.6 632.8 143C642.1 152.4 642.2 167.6 632.8 176.9L585.8 223.9L632.8 270.9C642.2 280.3 642.2 295.5 632.8 304.8C623.4 314.1 608.2 314.2 598.9 304.8L551.9 257.8L504.9 304.8C495.5 314.2 480.3 314.2 471 304.8C461.7 295.4 461.6 280.2 471 270.9L518 223.9L471 176.9C461.6 167.5 461.6 152.3 471 143Z" fill="#F4772A"/>
</g>
<defs>
<clipPath id="clip0_209_28">
<rect width="640" height="512" fill="white"/>
</clipPath>
</defs>
</svg>
